<svg width="56" height="61" viewBox="0 0 56 61" fill="none" xmlns="http://www.w3.org/2000/svg">
<path fill-rule="evenodd" clip-rule="evenodd" d="M25.0924 5.17956C23.731 5.49667 23.4014 5.48853 21.9867 5.95861C20.1613 6.56518 18.3381 7.56819 16.8497 8.70902C12.9077 11.7307 10.2928 16.6095 10.0234 21.6601C9.67074 28.272 11.0325 31.4857 8.10149 37.3966L6.54396 39.8417C6.03394 40.5177 4.80356 41.8855 4.15495 42.3969C0.929538 44.9394 2.71443 50.2672 6.9633 50.2672H48.2839C48.9638 50.2672 49.5889 50.1239 50.051 49.9155C50.6627 49.6395 50.8691 49.4793 51.3482 49.0937C52.3793 48.2635 52.7573 47.0242 52.7573 45.5583C52.7573 43.107 50.7064 42.3111 49.6285 40.9176C49.296 40.4878 49.0836 40.3136 48.7707 39.8918C48.4738 39.4916 48.1836 39.141 47.9356 38.7256C46.3313 36.0407 45.2058 33.1216 45.2204 29.5509C45.2357 25.816 45.5386 21.6345 44.7058 18.2931C44.195 16.2439 43.4152 14.5395 42.2804 12.8311C40.5951 10.2936 37.6796 7.74217 34.7963 6.54171C34.28 6.32683 33.9279 6.14717 33.3798 5.9569C32.5877 5.68163 31.0293 5.25245 30.1544 5.17975C30.1544 4.05047 30.3557 2.47893 29.9954 1.57172C29.6205 0.62778 28.7718 0.0908728 27.8824 0H27.3408C26.4752 0.0889796 25.6539 0.609226 25.2774 1.59766C24.9272 2.51699 25.0924 4.01809 25.0924 5.17975V5.17956ZM26.976 60.2738H27.0663H27.1549C28.9668 60.2735 29.6908 60.2562 31.484 59.4844C32.3922 59.0934 33.8283 58.1056 34.4092 57.4651C35.4065 56.3656 36.8311 54.2469 36.8648 52.7395H18.3824C18.9307 55.093 19.6898 56.2188 21.2943 57.8328C22.3681 58.9128 24.8772 60.2738 26.9761 60.2738H26.976ZM41.809 4.12014C41.809 5.81718 42.0593 5.59739 43.0148 6.68142C46.8936 11.0827 49.1567 15.3853 50.002 21.4731C50.3486 23.9688 49.4185 27.3114 52.9928 27.3114C53.6492 27.3114 54.2838 26.9355 54.6104 26.5744C55.0231 26.118 55.259 25.5506 55.336 24.8225L54.9883 20.3718C54.3183 15.5449 52.3158 10.418 49.4797 6.57389L46.7855 3.26423C45.6732 2.10825 45.4542 1.88334 43.9283 1.88334C43.4372 1.88334 42.7935 2.34319 42.5235 2.59764L42.0463 3.17979C41.9073 3.42704 41.8094 3.72768 41.8094 4.12014H41.809ZM0.017402 23.6621C0.017402 25.0186 -0.175703 25.6629 0.747792 26.5811C2.24757 28.0721 4.69375 27.2189 5.03718 25.2679C5.15304 24.6102 5.02109 23.8908 5.11158 23.2233C5.63183 19.3824 5.49343 18.712 7.08049 14.715C8.01023 12.3738 9.40532 10.1191 10.9488 8.22361C12.0389 6.88513 13.5556 5.79106 13.5556 4.47321C13.5556 3.14855 12.5124 1.88334 11.201 1.88334C9.57381 1.88334 9.41668 2.43672 8.28739 3.56089C7.62043 4.22483 7.01972 4.94859 6.44059 5.71666C3.80945 9.20579 2.33087 12.3083 1.06244 16.5843C0.535945 18.359 0.017402 21.3706 0.017402 23.6621Z" fill="#ddd"/>
</svg>
