<svg width="191" height="38" viewBox="0 0 191 38" fill="none" xmlns="http://www.w3.org/2000/svg">
<path d="M162.978 0C160.903 0 159.652 1.08911 159.652 3.21602C159.652 5.34435 160.899 6.43632 162.978 6.43632C165.159 6.43632 166.352 5.34435 166.352 3.21602C166.352 1.08911 165.159 0 162.978 0Z" fill="white"/>
<path d="M108.127 32.384C107.413 32.5565 106.68 32.6435 105.945 32.6435C102.982 32.6435 101.582 31.5543 101.582 28.3868V15.4115H107.242C107.395 15.4229 107.549 15.403 107.693 15.3502C107.837 15.2975 107.968 15.2134 108.078 15.105C108.187 14.9967 108.271 14.8655 108.324 14.7216C108.378 14.5776 108.399 14.4236 108.386 14.2711V11.8833C108.393 11.7322 108.369 11.5797 108.315 11.4371C108.259 11.296 108.175 11.1663 108.068 11.0593C107.96 10.951 107.83 10.8669 107.689 10.8113C107.546 10.7571 107.395 10.7329 107.242 10.74H101.582V4.94377C101.594 4.78981 101.572 4.63585 101.52 4.49187C101.465 4.34789 101.383 4.21674 101.273 4.1084C101.164 4.00006 101.033 3.91595 100.889 3.86178C100.745 3.80903 100.591 3.78765 100.437 3.80048H97.0626C96.9085 3.78338 96.7515 3.80048 96.606 3.8518C96.4591 3.90312 96.3264 3.98723 96.2166 4.09699C96.1067 4.20676 96.0226 4.33934 95.9712 4.48617C95.9199 4.633 95.9013 4.78838 95.9184 4.94377V28.5564C95.9184 35.1995 99.1413 37.5388 104.801 37.5388C106.151 37.5402 107.496 37.3649 108.801 37.0199C109.217 36.9158 109.372 36.4497 109.372 35.8253V33.3334C109.372 32.5394 108.906 32.2358 108.127 32.384Z" fill="white"/>
<path d="M90.2072 10.7429H87.4409C81.7255 10.7429 78.4026 13.5056 78.4026 19.1507V35.8096C78.3855 35.9636 78.4027 36.1189 78.4554 36.2658C78.5054 36.4112 78.5895 36.5452 78.6994 36.6549C78.8078 36.7647 78.9406 36.8474 79.0876 36.8987C79.2331 36.9515 79.3899 36.97 79.544 36.9529H82.9738C83.1264 36.9657 83.2805 36.9443 83.4246 36.8902C83.5687 36.8374 83.7001 36.7533 83.8085 36.645C83.9169 36.5366 84.0011 36.4055 84.0538 36.2615C84.1052 36.1161 84.1266 35.9621 84.1138 35.8096V19.0481C84.1138 16.4522 85.6218 15.4129 87.9587 15.4129H90.193C90.3456 15.4243 90.4997 15.403 90.6438 15.3502C90.7879 15.2975 90.9177 15.2134 91.0261 15.105C91.1346 14.9981 91.2173 14.867 91.2715 14.723C91.3243 14.579 91.3457 14.425 91.3343 14.2725V11.8862C91.3415 11.735 91.3172 11.5854 91.263 11.4442C91.2088 11.3031 91.126 11.1748 91.0204 11.0679C90.9148 10.9596 90.7878 10.8754 90.648 10.8198C90.5082 10.7643 90.357 10.7372 90.2072 10.7429Z" fill="white"/>
<path d="M164.688 10.7429H161.261C161.109 10.7315 160.954 10.7529 160.812 10.8056C160.666 10.8598 160.536 10.9439 160.428 11.0522C160.32 11.1606 160.235 11.2917 160.181 11.4357C160.128 11.5797 160.105 11.7322 160.117 11.8862V35.8096C160.101 35.9636 160.118 36.1204 160.17 36.2672C160.221 36.4126 160.305 36.5466 160.415 36.6564C160.526 36.7661 160.658 36.8502 160.805 36.9001C160.952 36.9529 161.109 36.97 161.261 36.9529H164.688C164.844 36.97 164.999 36.9529 165.146 36.9001C165.292 36.8502 165.426 36.7661 165.537 36.6564C165.645 36.5466 165.73 36.4126 165.78 36.2672C165.832 36.1204 165.851 35.9636 165.834 35.8096V11.8862C165.845 11.7322 165.824 11.5783 165.769 11.4343C165.718 11.2903 165.634 11.1591 165.526 11.0508C165.416 10.9425 165.284 10.8584 165.14 10.8042C164.996 10.7514 164.842 10.7301 164.688 10.7429Z" fill="white"/>
<path d="M182.091 21.5271C178.56 19.9177 177.469 19.3474 177.469 17.5826C177.469 15.8164 178.82 14.8841 182.091 14.8841C183.946 14.8712 185.788 15.1706 187.544 15.7693C188.324 16.0801 188.844 15.7166 188.844 14.8841V12.4977C188.862 12.2212 188.791 11.946 188.641 11.7122C188.493 11.4799 188.273 11.3003 188.013 11.2019C185.883 10.5034 183.658 10.1541 181.416 10.1655C175.443 10.1655 171.756 12.5006 171.756 17.4828C171.756 22.0488 175.026 23.701 179.182 25.5799C183.332 27.5001 184.324 28.344 184.324 29.8879C184.324 31.9606 182.595 32.6905 179.028 32.6905C176.851 32.7147 174.694 32.2928 172.689 31.446C171.859 31.1324 171.337 31.446 171.337 32.327V34.9742C171.318 35.2579 171.395 35.5402 171.556 35.7754C171.716 36.0106 171.95 36.1859 172.223 36.2729C174.531 37.1353 176.978 37.5573 179.442 37.516C185.935 37.516 190.039 35.3876 190.039 30.0433C190.039 25.483 186.983 23.7181 182.091 21.5271Z" fill="white"/>
<path d="M61.7402 10.1712C58.9453 10.1442 56.1805 10.7343 53.6395 11.8976C53.0132 12.1057 52.8062 12.589 52.8062 13.1977V15.6881C52.8062 16.5163 53.3284 16.8798 54.106 16.465C56.2546 15.3987 58.6229 14.847 61.0211 14.8556C64.6064 14.8556 66.3699 15.8435 66.3699 18.3339C66.3699 20.9284 65.0217 21.443 59.7215 22.3311C53.387 23.3675 50.9459 25.3404 50.9459 29.9592C50.9459 35.4076 54.32 37.5359 61.6432 37.5359C64.8662 37.5359 68.3445 37.1211 71.1479 36.136C71.6701 35.9251 71.9297 35.5102 71.9297 34.8374V18.6318C71.9226 12.817 68.3901 10.1712 61.7402 10.1712ZM56.5984 29.7895C56.5984 27.3504 58.1065 26.6804 61.3252 26.1031C63.8247 25.7239 65.444 25.4131 66.3628 24.7217V32.6677C64.8576 33.0811 63.301 33.2835 61.7402 33.2721C58.2619 33.2721 56.5984 32.5394 56.5984 29.7895Z" fill="white"/>
<path d="M153.791 10.7415H151.088C145.375 10.7415 142.001 13.5056 142.001 19.1507V35.8096C141.988 35.9621 142.01 36.1161 142.061 36.2601C142.115 36.4041 142.198 36.5352 142.308 36.645C142.416 36.7533 142.546 36.8374 142.69 36.8902C142.834 36.9443 142.988 36.9657 143.141 36.9529H146.571C146.725 36.97 146.882 36.9515 147.029 36.8987C147.174 36.8474 147.307 36.7647 147.417 36.655C147.525 36.5452 147.609 36.4112 147.661 36.2658C147.712 36.1189 147.729 35.9636 147.712 35.8096V19.0467C147.712 16.4522 149.22 15.413 151.61 15.413H153.791C153.945 15.4286 154.101 15.4115 154.246 15.3602C154.392 15.3075 154.524 15.2248 154.634 15.115C154.744 15.0053 154.827 14.8741 154.878 14.7273C154.931 14.5819 154.948 14.4265 154.933 14.2725V11.8862C154.944 11.7322 154.922 11.5797 154.868 11.4357C154.817 11.2917 154.733 11.1606 154.624 11.0522C154.516 10.9439 154.386 10.8598 154.242 10.8056C154.098 10.7529 153.944 10.7301 153.791 10.7415Z" fill="white"/>
<path d="M124.539 10.1727C116.587 10.1727 112.749 14.4806 112.749 22.4223V25.483C112.749 33.5259 117.32 37.5231 126.41 37.5231C129.734 37.5231 132.537 36.9529 134.615 36.0719C135.03 35.9137 135.188 35.5501 135.188 34.8773V32.3869C135.188 31.5572 134.666 31.1908 133.888 31.5045C131.659 32.24 129.323 32.6078 126.973 32.5936C121.097 32.5936 118.559 31.2422 118.559 25.7424V25.3276H134.809C134.961 25.3404 135.117 25.319 135.26 25.2649C135.404 25.2121 135.536 25.128 135.645 25.0197C135.753 24.9113 135.837 24.7802 135.89 24.6362C135.943 24.4922 135.964 24.3383 135.953 24.1843V22.8899C135.966 14.4279 131.915 10.1727 124.539 10.1727ZM124.435 15.0081C128.384 15.0081 129.907 17.1578 130.079 21.2277H118.593C118.821 16.6603 120.575 14.9981 124.435 14.9981V15.0081Z" fill="white"/>
<path d="M41.5968 0.845343C41.5968 0.756959 41.5797 0.670003 41.5454 0.588747C41.5126 0.507491 41.4628 0.433365 41.4 0.372066C41.3372 0.309342 41.263 0.260873 41.1803 0.228085C41.0989 0.195298 41.0119 0.178192 40.9235 0.179617C29.0134 0.342129 23.0554 4.83401 23.0511 13.6524V36.2914C23.0511 36.3784 23.0668 36.4653 23.101 36.5466C23.1338 36.6264 23.1825 36.7006 23.2452 36.7619C23.3066 36.8246 23.3793 36.8731 23.4606 36.9073C23.5405 36.9401 23.6276 36.9586 23.7146 36.9586H29.6654C29.7538 36.9586 29.8409 36.9415 29.9208 36.9073C30.0021 36.8745 30.0762 36.826 30.1389 36.7633C30.2003 36.702 30.2503 36.6279 30.2831 36.5466C30.316 36.4653 30.333 36.3784 30.333 36.2914V13.5997C30.333 11.6453 30.9622 10.1983 32.2234 9.26887C33.8627 8.06571 36.7688 7.43847 40.9405 7.38573C41.116 7.3843 41.2844 7.31303 41.4071 7.18758C41.5312 7.06356 41.6012 6.89392 41.6012 6.71858L41.5968 0.845343Z" fill="#F5A900"/>
<path d="M0 0.846769C0 0.75696 0.0185638 0.667153 0.0528046 0.585897C0.0884721 0.50179 0.139911 0.427661 0.204113 0.366362C0.268314 0.303638 0.345261 0.255169 0.42801 0.222381C0.512185 0.191019 0.602151 0.176766 0.692033 0.179617C12.6064 0.342128 18.5643 4.83401 18.5672 13.6524V36.2914C18.5672 36.3798 18.5499 36.4668 18.5171 36.5466C18.4829 36.6279 18.4345 36.702 18.3717 36.7647C18.3103 36.826 18.2362 36.8759 18.1563 36.9087C18.0735 36.9415 17.9878 36.9586 17.8994 36.9586H11.9529C11.776 36.9586 11.6063 36.8887 11.4808 36.7633C11.3552 36.6378 11.2853 36.4682 11.2853 36.2914V13.6011C11.2853 11.6452 10.656 10.1983 9.39769 9.26887C7.75841 8.06713 4.8522 7.43847 0.677682 7.38573C0.502198 7.3843 0.333948 7.31302 0.209825 7.189C0.087129 7.06355 0.0171371 6.89534 0.0171371 6.71857L0 0.846769Z" fill="#009265"/>
</svg>
