<svg width="155" height="97" viewBox="0 0 155 97" fill="none" xmlns="http://www.w3.org/2000/svg">
<path fill-rule="evenodd" clip-rule="evenodd" d="M66.8552 51.195L87.9262 51.1365V48.7644C87.8334 48.4736 87.9533 48.6318 87.6808 48.5377H69.449L69.4461 41.919L84.2154 41.9175L84.2239 39.3045H69.4561L69.4461 32.6786L87.8819 32.6772L87.9319 30.1055L66.8524 30.1041L66.8552 51.195Z" fill="white"/>
<path fill-rule="evenodd" clip-rule="evenodd" d="M132.308 51.041L132.296 48.5392L113.811 48.5406V41.919L128.614 41.9047L128.617 39.3045L113.811 39.3031L113.805 32.6772L132.306 32.6415L132.278 30.1611L111.22 30.1041L111.223 51.1208C113.186 51.2249 131.721 51.2477 132.308 51.041Z" fill="white"/>
<path fill-rule="evenodd" clip-rule="evenodd" d="M133.393 51.1768L135.994 51.1354L135.997 34.6205C136.959 35.6569 142.069 42.5437 143.465 44.3926L144.067 45.0398C145.065 44.0134 151.252 35.1708 151.884 34.7018L151.876 51.1383L154.477 51.1254C154.449 48.8802 154.359 30.7929 154.56 30.1571L151.993 30.1044L143.943 40.8202C143.439 40.4054 142.378 38.8216 141.872 38.1459L135.876 30.1001L133.398 30.14L133.393 51.1768Z" fill="white"/>
<path fill-rule="evenodd" clip-rule="evenodd" d="M47.4764 30.6142C47.2025 30.9506 45.0368 31.5436 44.7286 34.9535C44.5332 37.1061 44.6644 39.8146 44.6644 42.0485C44.6644 45.9887 44.098 50.75 49.966 51.132L65.7653 51.1363L65.7624 48.5432C61.3924 48.452 56.9441 48.5375 52.5798 48.5375C46.6732 48.5375 47.261 47.8732 47.261 40.6799C47.261 33.4396 46.6533 32.677 52.4556 32.677C56.8741 32.677 61.3126 32.7169 65.7297 32.6741L65.771 30.111L51.8322 30.1039C49.6579 30.1053 49.3425 30.1637 47.4764 30.6142Z" fill="white"/>
<path fill-rule="evenodd" clip-rule="evenodd" d="M98.2568 50.7545V51.1365H100.879L100.878 32.6829C102.299 32.6615 109.212 32.5161 110.053 32.7613L110.103 30.1055L89.0418 30.1041L89.0403 30.2324L89.0517 32.6772H98.2568V50.7545Z" fill="white"/>
<path fill-rule="evenodd" clip-rule="evenodd" d="M112.062 26.8798C103.082 5.30428 65.1945 8.94939 28.5212 26.4294C10.9414 35.6341 -0.00855518 45.3477 5.01533e-06 55.9024C5.01533e-06 76.473 43.8711 79.0162 76.4455 67.4066C46.9756 74.9591 12.3081 77.766 7.69276 60.2332C6.48434 55.6416 7.45732 51.5659 9.47752 47.3891C12.6833 40.7618 18.2275 36.287 26.5723 31.2962C54.6198 14.519 101.848 5.54805 112.062 26.8798Z" fill="white"/>
<path fill-rule="evenodd" clip-rule="evenodd" d="M82.4104 78.6313C44.8711 112.159 11.9728 81.0746 23.2993 40.6406C34.2564 1.53797 69.3175 -11.5628 92.3345 19.0123C74.0827 -14.9812 30.8781 -0.221144 18.0578 38.2556C15.3456 46.3941 14.3897 54.2331 15.0374 62.8035C17.8994 100.56 54.5042 107.574 82.4104 78.6313Z" fill="#E5312C"/>
<path d="M45.9241 55.2909H44.6844V54.2146H48.3495V55.2909H47.1098V61.7528H45.9241V55.2909ZM56.767 54.2146H59.9999V55.2909H57.9527V57.2838H59.5806V58.36H57.9527V60.6765H59.9999V61.7528H56.767V54.2146ZM70.1951 61.8612C69.6273 61.8612 69.1951 61.7001 68.8969 61.3765C68.5987 61.0529 68.4488 60.5967 68.4488 60.008V55.9594C68.4488 55.3707 68.5987 54.9145 68.8969 54.5909C69.1951 54.2687 69.6273 54.1062 70.1951 54.1062C70.763 54.1062 71.1967 54.2687 71.4949 54.5909C71.7931 54.9145 71.9414 55.3707 71.9414 55.9594V56.7563H70.82V55.8839C70.82 55.4163 70.6232 55.1839 70.228 55.1839C69.8328 55.1839 69.6345 55.4163 69.6345 55.8839V60.0949C69.6345 60.554 69.8328 60.7835 70.228 60.7835C70.6232 60.7835 70.82 60.554 70.82 60.0949V58.9417H71.9414V60.008C71.9414 60.5967 71.7931 61.0529 71.4949 61.3765C71.1967 61.7001 70.763 61.8612 70.1951 61.8612ZM80.4987 54.2146H81.9855L83.1396 58.7264H83.161V54.2146H84.2168V61.7528H82.9998L81.576 56.2502H81.5545V61.7528H80.4987V54.2146ZM94.6602 61.8612C94.0781 61.8612 93.633 61.6958 93.3234 61.3651C93.0152 61.0344 92.8611 60.5682 92.8611 59.9652V56.0022C92.8611 55.3992 93.0152 54.9316 93.3234 54.6023C93.633 54.2716 94.0781 54.1062 94.6602 54.1062C95.2423 54.1062 95.6889 54.2716 95.9971 54.6023C96.3067 54.9316 96.4608 55.3992 96.4608 56.0022V59.9652C96.4608 60.5682 96.3067 61.0344 95.9971 61.3651C95.6889 61.6958 95.2423 61.8612 94.6602 61.8612ZM94.6602 60.7835C95.0697 60.7835 95.2751 60.5368 95.2751 60.0408V55.9267C95.2751 55.432 95.0697 55.1839 94.6602 55.1839C94.2508 55.1839 94.0466 55.432 94.0466 55.9267V60.0408C94.0466 60.5368 94.2508 60.7835 94.6602 60.7835ZM105.104 54.2146H106.289V60.6765H108.241V61.7528H105.104V54.2146ZM118.328 61.8612C117.746 61.8612 117.3 61.6958 116.991 61.3651C116.683 61.0344 116.529 60.5682 116.529 59.9652V56.0022C116.529 55.3992 116.683 54.9316 116.991 54.6023C117.3 54.2716 117.746 54.1062 118.328 54.1062C118.91 54.1062 119.356 54.2716 119.665 54.6023C119.974 54.9316 120.128 55.3992 120.128 56.0022V59.9652C120.128 60.5682 119.974 61.0344 119.665 61.3651C119.356 61.6958 118.91 61.8612 118.328 61.8612ZM118.328 60.7835C118.737 60.7835 118.943 60.5368 118.943 60.0408V55.9267C118.943 55.432 118.737 55.1839 118.328 55.1839C117.918 55.1839 117.714 55.432 117.714 55.9267V60.0408C117.714 60.5368 117.918 60.7835 118.328 60.7835ZM130.453 61.8612C129.878 61.8612 129.439 61.6972 129.138 61.3708C128.837 61.0443 128.685 60.5753 128.685 59.9652V56.0022C128.685 55.3921 128.837 54.9231 129.138 54.5966C129.439 54.2702 129.878 54.1062 130.453 54.1062C131.028 54.1062 131.466 54.2702 131.767 54.5966C132.07 54.9231 132.221 55.3921 132.221 56.0022V56.648H131.1V55.9267C131.1 55.432 130.894 55.1839 130.485 55.1839C130.075 55.1839 129.871 55.432 129.871 55.9267V60.0507C129.871 60.5397 130.075 60.7835 130.485 60.7835C130.894 60.7835 131.1 60.5397 131.1 60.0507V58.5753H130.506V57.499H132.221V59.9652C132.221 60.5753 132.07 61.0443 131.767 61.3708C131.466 61.6972 131.028 61.8612 130.453 61.8612ZM140.831 54.2146H142.017V61.7528H140.831V54.2146ZM151.663 54.2146H153.269L154.497 61.7528H153.312L153.096 60.256V60.2774H151.748L151.533 61.7528H150.434L151.663 54.2146ZM152.957 59.2539L152.427 55.5275H152.406L151.889 59.2539H152.957Z" fill="#E5312C"/>
</svg>
