<svg width="59" height="65" viewBox="0 0 59 59" fill="#ddd" xmlns="http://www.w3.org/2000/svg">
<g clip-path="url(#clip0_708_3090)">
<path d="M24.7828 0C9.95937 0 -1.46269e-05 5.49043 -1.46269e-05 10.6174C-1.46269e-05 15.7466 9.95937 21.2404 24.7828 21.2404C39.6061 21.2404 49.5601 15.7477 49.5601 10.6174C49.5601 5.49043 39.6061 0 24.7828 0ZM-1.46269e-05 16.0588V22.598C-1.46269e-05 27.6409 9.96592 33.0408 24.8002 33.0408C39.6356 33.0408 49.5601 27.6409 49.5601 22.598V16.0588C45.2232 20.4884 35.912 23.5998 24.8002 23.5998C13.684 23.5998 4.33689 20.4873 -1.46269e-05 16.0588ZM-1.46269e-05 28.2139V34.4508C-1.46269e-05 39.4905 9.96592 44.8958 24.8002 44.8958C27.7621 44.8958 30.5122 44.6677 33.0397 44.2803V43.5611L34.9986 43.225L36.9575 42.8867C36.9728 42.8507 36.9859 42.8157 37.0012 42.7808L35.8324 41.1329L34.6821 39.5079L36.0899 38.1001L38.2125 35.9753L39.6323 34.5555L41.2617 35.7287L43.094 37.0492L43.453 34.8971L43.7826 33.0419H49.5579V28.2521C45.2057 32.6599 35.8804 35.4013 24.798 35.4013C13.6819 35.4013 4.33471 32.6436 -0.00219727 28.215L-1.46269e-05 28.2139ZM45.7852 35.2824L45.1948 38.8215C44.3687 39.0572 43.5436 39.4119 42.8343 39.7666L39.8844 37.6418L37.7596 39.7644L39.7644 42.5964C39.2918 43.3046 38.9394 44.1297 38.8215 44.9558L35.3991 45.5462V48.4961L38.8215 49.0865C39.0561 49.9126 39.4108 50.7365 39.7644 51.4459L37.7596 54.3957L39.8844 56.5205L42.8343 54.5136C43.5436 54.985 44.3687 55.2229 45.1948 55.4576L45.7852 58.9978H48.735L49.3243 55.4576C50.1505 55.2229 50.9766 54.8672 51.6849 54.5136L54.6347 56.5205L56.7573 54.3957L54.6347 51.5638C55.1073 50.8555 55.343 50.0294 55.5776 49.2032L59 48.4982V45.5484L55.4597 44.9591C55.224 44.133 54.8693 43.3068 54.5158 42.5986L56.5227 39.6487L54.5158 37.6407L51.686 39.7655C50.9777 39.294 50.1516 39.0561 49.3254 38.8204L48.7361 35.2813H45.7863L45.7852 35.2824ZM-1.46269e-05 40.0667V46.1966C-1.46269e-05 51.2396 9.96592 56.6395 24.8002 56.6395C28.7901 56.6395 32.4078 56.2379 35.589 55.5656L34.7094 54.6871L35.8105 53.072L37.0688 51.2167C37.0634 51.2036 37.059 51.1927 37.0546 51.1796L34.9986 50.8249L33.0397 50.4866V48.4971L33.0189 46.5841C30.4249 46.9682 27.6769 47.1996 24.7795 47.1996C13.6633 47.1996 4.33689 44.4953 -0.00110595 40.0667H-1.46269e-05ZM47.2006 43.6593C49.2065 43.6593 50.7409 45.1937 50.7409 47.1996C50.7409 49.2054 49.2065 50.7398 47.2006 50.7398C45.1948 50.7398 43.6604 49.2054 43.6604 47.1996C43.6604 45.1937 45.1948 43.6593 47.2006 43.6593Z" fill="#ddd"/>
</g>
<defs>
<clipPath id="clip0_708_3090">
<rect width="59" height="59" fill="white"/>
</clipPath>
</defs>
</svg>
