<svg width="61" height="61" viewBox="0 0 61 61" xmlns="http://www.w3.org/2000/svg">
<path fill-rule="evenodd" clip-rule="evenodd" d="M0.000409704 30.0232C0.000409704 32.0367 0.18942 33.009 1.69686 34.522C2.54344 35.3717 3.78676 36.136 5.48211 36.098C6.98832 36.0643 6.55308 35.9664 6.55308 40.3884C6.55308 43.6368 6.31586 54.6228 6.76421 56.2614C7.46344 58.8163 10.0541 60.9999 12.7483 60.9999H22.8753C25.153 60.9999 24.6624 58.2252 24.6624 56.9491L24.6595 45.2705C24.649 43.3275 25.8355 41.9374 27.2834 41.9374H33.717C34.5451 41.9374 35.1786 42.4639 35.5979 42.9158C36.0955 43.4517 36.3435 44.1371 36.3422 45.15C36.3402 46.8593 36.1907 58.9963 36.4055 59.7411C36.6083 60.4443 37.2648 61 38.1251 61H48.2521C49.792 61 51.2512 60.2356 52.0958 59.4824C54.9125 56.9706 54.4473 55.0107 54.4473 51.1114V37.7675C54.4449 36.256 54.0626 36.0658 55.5183 36.0983C58.6297 36.1678 60.8253 33.5532 61 30.7742V30.0613C60.9424 29.1561 60.6621 28.2561 60.1206 27.4476C59.3441 26.288 38.6132 5.78995 35.7124 2.8891C33.5796 0.756315 33.1319 0 30.0234 0C27.857 0 26.4763 1.70028 25.3472 2.82956L2.82955 25.3472C1.70027 26.4765 0 27.8571 0 30.0234L0.000409704 30.0232Z" fill="#ddd"/>
</svg>
