<svg width="58" height="58" viewBox="0 0 58 58" fill="none" xmlns="http://www.w3.org/2000/svg">
<path fill-rule="evenodd" clip-rule="evenodd" d="M26.2364 23.6217V12.9555C26.2364 9.74172 31.3856 9.74172 31.3856 12.9555V23.6217C31.3856 26.8634 26.2364 26.8634 26.2364 23.6217ZM15.6928 28.5256C15.6928 30.8728 16.1199 32.492 16.9201 34.2865C18.9016 38.7304 23.8093 41.8891 28.811 41.8891C33.0026 41.8891 37.107 39.7206 39.4769 36.3718C42.6907 31.8305 42.7818 25.5413 39.444 21.0802C38.3986 19.6831 37.556 19.1975 37.3494 18.0168C37.0888 16.5269 38.4863 15.1622 39.4773 15.1622C41.4034 15.1622 41.6391 15.6104 43.0611 17.3406C43.817 18.2604 44.4743 19.2677 45.0351 20.3931C48.6511 27.648 47.4231 35.966 41.7147 41.6744C39.8101 43.579 38.711 44.2224 36.454 45.3636C32.1709 47.5293 25.6417 47.615 21.2491 45.405C20.7187 45.1381 20.3019 44.948 19.7784 44.6689C19.2702 44.398 18.8375 44.0702 18.3643 43.7536C9.95042 38.1255 7.81866 25.6168 14.5048 17.4069C15.941 15.6435 16.2055 15.1622 18.1448 15.1622C18.7258 15.1622 19.4102 15.7011 19.7066 16.0523C21.417 18.0779 19.222 19.6983 18.2836 20.9407C16.9823 22.6639 15.6927 25.53 15.6927 28.5254L15.6928 28.5256ZM0 28.403C0 34.4712 1.72593 40.4672 5.2007 45.2703C6.34329 46.8496 6.78321 47.1985 7.61947 48.246C8.27991 49.0733 9.07086 49.7235 9.83774 50.4413C11.7592 52.24 14.5738 53.8531 16.917 55.009C23.8282 58.4184 33.875 58.4283 40.7864 54.9678C44.4605 53.1281 44.585 52.9551 47.3246 50.8399C47.7099 50.5424 47.9161 50.2577 48.2861 49.9623C48.7136 49.6211 48.865 49.4796 49.2548 49.092C51.6784 46.6823 53.5388 43.7264 55.0491 40.6648C58.4518 33.7674 58.4466 23.7637 55.0491 16.8768C53.3186 13.3689 52.9856 12.9716 50.9325 10.3272L46.372 5.93796C44.7726 4.61831 42.5711 3.45323 40.705 2.53265C35.0769 -0.243828 28.4148 -0.547701 22.323 0.705203C20.743 1.03015 18.3535 1.83963 16.9989 2.49199C14.0989 3.88849 12.816 4.7179 10.4369 6.59611C10.0056 6.93661 9.86101 7.12262 9.46984 7.46812C7.75463 8.98353 7.47131 9.40658 6.03503 11.1442C2.49439 15.4278 0 22.3971 0 28.4031L0 28.403Z" fill="#ddd"/>
</svg>
