<svg width="72" height="67" viewBox="0 0 72 67" fill="none" xmlns="http://www.w3.org/2000/svg">
<g clip-path="url(#clip0_304_33)">
<path fill-rule="evenodd" clip-rule="evenodd" d="M23.3438 31.825C20.1735 31.825 18.1324 31.0657 16.2068 29.1383C15.272 28.2028 14.9326 27.833 14.2953 26.569C12.5403 23.0884 13.1884 18.8892 15.9124 15.9341C18.6863 12.9248 23.2361 12.1374 26.9567 13.8618C33.9803 17.1172 34.2296 27.4065 27.0515 30.8989C26.2245 31.3013 24.5034 31.8249 23.3438 31.8249L23.3438 31.825ZM18.9844 4.74593C16.1213 5.40793 14.7344 6.29801 14.2031 6.42094L11.2501 2.9314C10.7165 3.07282 6.1817 7.0741 5.48441 7.53759C5.65696 8.17902 7.75164 10.2896 8.43757 11.3064C7.82533 12.2139 6.1389 14.5363 6.04695 15.6334L1.2657 14.7959L0.301638 20.2597C0.188876 20.9416 6.10352e-05 21.4972 6.10352e-05 22.1938L4.64074 23.0313C4.64074 24.175 4.90606 25.7602 5.17229 26.8308C5.29968 27.3435 5.44152 27.5441 5.4845 28.0563C5.00983 28.1821 3.95717 28.8669 3.49013 29.1475C2.78222 29.5729 2.12763 29.9107 1.40636 30.2896C2.02432 31.4487 2.63702 32.4182 3.28278 33.5916C3.59226 34.1539 3.90611 34.6814 4.21086 35.183C4.54833 35.7385 4.851 36.3278 5.20328 36.85L9.42199 34.4772C10.1608 35.5723 12.0319 37.0642 13.2188 37.6876C12.566 39.0381 12.1841 40.8038 11.5313 42.1543L16.7862 44.057C17.4129 44.2668 18.0969 44.6166 18.7032 44.6668L20.25 40.3397L23.0625 40.4794C24.0809 40.4794 24.4709 40.3397 25.4532 40.3397C25.4953 40.8425 26.761 44.2184 27 44.6668C27.6413 44.5185 28.176 44.3074 28.7869 44.0675C30.3078 43.4704 32.9033 42.6914 34.0312 42.1543C33.9758 41.4935 32.6931 38.577 32.4844 37.6876C33.6939 36.8837 35.4941 35.6438 36.2812 34.4772C37.7257 35.2358 39.0669 36.0975 40.4999 36.85L43.2642 32.0564C43.5845 31.4725 44.006 30.9293 44.1561 30.2898C43.5024 29.9464 42.8575 29.5446 42.1946 29.1659C41.5449 28.7947 40.9025 28.4157 40.2186 28.0565C40.2362 27.2695 40.6269 26.3476 40.7431 25.6459C40.8757 24.8447 40.9991 23.786 41.0624 23.0315L45.703 22.194L44.4374 14.7962C43.2899 14.891 40.8084 15.5384 39.6561 15.6337C39.5105 15.0133 38.9027 13.9414 38.577 13.3549C37.1928 10.8614 36.7431 11.8798 37.9684 10.3293C38.3689 9.82265 40.1052 7.95968 40.2186 7.53786C39.5833 7.36947 35.2082 3.43367 34.453 2.93167C34.0002 3.23263 33.3168 4.14698 32.9259 4.62625C32.4493 5.21041 31.85 5.76454 31.4999 6.42121C31.0198 6.31019 30.8654 6.15723 30.4157 5.96197C29.4863 5.55846 27.519 4.82395 26.578 4.74629V0.000488281H18.9842V4.74629L18.9844 4.74593Z" fill="#ddd"/>
<path fill-rule="evenodd" clip-rule="evenodd" d="M50.3437 57.5083C48.3031 57.5083 46.4955 56.6816 45.4529 55.6629C40.7705 51.0876 44.4226 43.9687 50.0625 43.9687C55.4884 43.9687 59.5117 50.4067 55.0208 55.4507C54.1741 56.4017 52.1063 57.5083 50.3438 57.5083H50.3437ZM45.2812 35.175C45.2812 36.1713 45.5065 37.8271 45.703 38.6646C44.6825 38.7489 42.9656 40.0683 42.4686 40.2C42.1627 39.9967 42.1458 39.9307 41.8707 39.6769C41.478 39.3146 40.2456 38.1879 39.9374 38.1063C39.505 38.3936 39.3706 38.5907 39.0342 39.0244C38.7185 39.4316 38.4765 39.5964 38.1426 39.9541L36.4217 42.0147C36.7967 42.5707 37.1285 42.7434 37.6458 43.1724C38.0945 43.5447 38.5051 43.9322 38.8123 44.3876C38.4237 45.1166 37.6271 46.6382 37.5466 47.598C36.1788 47.598 35.3776 47.4584 34.031 47.4584L33.8904 52.9022C34.4952 52.9022 36.6215 52.8492 37.0958 53.0705C37.4441 53.2331 37.2701 53.0523 37.4217 53.445C37.4352 53.4803 37.5452 53.9992 37.5751 54.1303C37.7307 54.8116 38.0957 55.7822 38.3905 56.3918C37.9706 56.6708 37.5152 57.1012 37.0655 57.4495L35.7186 58.4856C36.1964 59.1938 36.7805 59.7968 37.3271 60.5182C37.908 61.2849 38.4363 61.907 38.9531 62.673C39.7229 62.469 40.68 61.2889 41.7656 60.7188C42.3377 61.0193 43.8693 62.3045 44.8594 62.5334C44.6944 62.8748 44.1563 65.3473 44.1563 65.8834C45.8785 66.2816 47.6442 66.6034 49.3595 67C49.5245 66.6587 50.0626 64.1862 50.0626 63.6501C52.4995 63.6501 52.7352 63.2531 53.7188 63.2314C54.2454 64.2191 54.7373 65.1715 55.2657 66.1625L60.0469 63.6501C59.9596 63.2782 58.7634 61.0732 58.5 60.5792C59.0704 60.2001 60.5651 58.7539 60.7499 58.0667C61.8856 58.1605 62.9894 59.0896 64.125 59.1834L66.0937 54.1584C65.2429 54.0882 63.9039 53.2508 62.9999 53.0418L63.1406 49.4126L66.2344 48.4356C66.2157 47.6007 64.9244 44.2805 64.6874 43.271C63.6896 43.5018 62.1453 44.1793 61.3125 44.2481C61.026 43.1831 59.5055 41.9046 59.2031 41.4565L61.0312 38.5253C60.4143 38.3618 57.3924 36.2598 56.3905 35.7336L54.703 38.5253C54.0929 38.5118 53.512 38.2517 52.9827 38.139C52.4178 38.0188 51.5904 37.8723 51.0468 37.8274L50.5958 34.4815C49.1553 34.5972 46.4827 35.1753 45.2812 35.1753V35.175Z" fill="#ddd"/>
<path fill-rule="evenodd" clip-rule="evenodd" d="M53.8594 22.4729C53.8594 20.8336 54.5306 19.5246 55.3659 18.6641C58.5963 15.336 64.547 17.3693 64.547 22.4729C64.547 25.4584 62.2398 27.6375 58.922 27.6375C56.2836 27.6375 53.8595 25.1202 53.8595 22.4729H53.8594ZM59.2031 12.1438C57.8442 12.1438 57.4786 12.2784 56.2499 12.5625C56.033 11.6385 55.2838 10.8662 55.1249 10.1896C54.4833 10.5267 53.9003 10.8089 53.2906 11.1605C52.9158 11.3768 51.6898 12.0479 51.3281 12.1438C51.4398 12.6199 51.6794 13.0085 51.8888 13.4018C52.1445 13.8816 52.4367 14.0666 52.4531 14.7959C51.9866 14.9196 51.8062 15.1857 51.5256 15.5502C51.2225 15.9436 51.0201 16.2333 50.7657 16.6105C49.7571 16.5271 49.1023 15.8562 48.0937 15.7729L46.5469 19.6813C46.9459 19.7736 47.3596 19.9756 47.7722 20.1401C48.2206 20.3189 48.6915 20.4743 49.0782 20.6584C49.0646 21.2632 48.953 21.2298 48.9329 21.91C48.9181 22.4085 48.9375 22.9465 48.9375 23.45L46.4138 24.3099C46.6444 24.7803 47.6232 27.7546 47.6718 28.3354C48.1503 28.2958 49.9543 27.6834 50.3437 27.4979C51.0265 28.7786 51.6163 29.1163 52.0312 29.7312C51.8441 30.4268 50.9793 31.1936 50.7656 32.1041C51.6761 32.5824 53.8717 34.0706 54.4218 34.1979C54.7219 33.6351 55.5452 32.4934 55.6875 31.9646C56.6082 32.1775 57.3288 32.5229 58.5 32.5229C58.6518 33.1698 58.8644 34.4897 58.9219 35.175C60.2497 35.175 61.8384 34.6455 63.1406 34.6166C63.1406 33.5716 62.8594 32.9274 62.8594 31.825C63.6969 31.7558 64.7211 30.9204 65.3906 30.5687L67.3594 32.3834L70.1719 29.1729C69.5481 28.7583 68.9232 27.9766 68.2031 27.4979C68.333 26.9448 68.866 26.2157 69.1875 24.8458H71.8594C71.896 24.4092 72.0001 24.3499 72.0001 23.8688V20.5188H69.3281C69.2375 19.4376 68.7052 18.6675 68.4845 17.7271C68.9475 17.4839 70.1938 16.5762 70.4532 16.1916C70.3578 15.8369 70.1398 15.6124 69.911 15.334C69.661 15.0296 69.477 14.7965 69.2199 14.4846C68.7772 13.9474 68.2901 13.3874 67.9219 12.8417C67.5261 13.1048 66.0425 14.2051 65.8125 14.5167C65.0778 14.0283 64.4374 13.3557 63.4219 13.1209C63.4219 12.0799 63.8438 11.3701 63.8438 10.3293L60.4223 9.65319C59.5069 9.45702 59.6777 9.49905 59.5139 10.3549C59.4009 10.9455 59.2159 11.5741 59.2032 12.1438H59.2031Z" fill="#ddd"/>
</g>
<defs>
<clipPath id="clip0_304_33">
<rect width="72" height="67" fill="white"/>
</clipPath>
</defs>
</svg>
